<?xml version="1.0" standalone="no"?>
<!DOCTYPE svg PUBLIC "-//W3C//DTD SVG 20010904//EN"
 "http://www.w3.org/TR/2001/REC-SVG-20010904/DTD/svg10.dtd">
<svg version="1.0" xmlns="http://www.w3.org/2000/svg"
 width="1117.000000pt" height="628.000000pt" viewBox="0 0 1117.000000 628.000000"
 preserveAspectRatio="xMidYMid meet">
<metadata>
Created by potrace 1.16, written by Peter Selinger 2001-2019
</metadata>
<g transform="translate(0.000000,628.000000) scale(0.100000,-0.100000)"
fill="#000000" stroke="none">
<path d="M3490 4886 c-138 -29 -230 -138 -353 -416 -112 -255 -198 -525 -280
-879 l-42 -183 -92 -23 c-51 -13 -121 -39 -155 -57 -78 -40 -177 -137 -207
-202 -83 -178 -18 -369 145 -428 26 -9 34 -18 34 -36 0 -23 1 -23 65 -17 l66
7 -7 -28 c-3 -16 -14 -63 -24 -104 -67 -272 -145 -762 -137 -858 6 -80 53
-179 102 -217 131 -99 302 -90 405 21 61 67 77 115 105 317 27 204 89 544 135
747 16 74 30 136 30 137 0 2 12 3 26 3 19 0 24 -4 20 -17 -62 -207 -106 -417
-136 -656 -26 -204 -24 -271 6 -275 33 -5 43 19 54 129 21 210 94 617 140 780
l10 36 137 6 c75 4 164 7 197 7 l61 0 48 -205 c109 -467 214 -799 274 -867 8
-9 28 -44 43 -77 63 -132 151 -198 252 -189 46 5 57 11 88 46 66 74 82 177 55
364 -21 155 -93 539 -143 769 l-38 176 53 51 c143 136 155 361 28 509 -39 46
-134 99 -193 109 -23 4 -45 11 -48 16 -10 16 -31 278 -50 637 -10 184 -21 321
-25 307 -4 -15 -13 -121 -20 -236 -7 -116 -15 -210 -19 -210 -4 0 -17 114 -29
253 -39 440 -43 461 -106 535 -30 36 -101 75 -154 86 -22 4 -46 21 -72 50 -67
75 -151 103 -249 82z m105 -953 c25 -150 73 -577 66 -584 -3 -4 -66 -9 -138
-12 -118 -6 -133 -4 -133 10 0 44 157 654 177 686 8 13 10 7 28 -100z"/>
<path d="M9192 4848 c-5 -8 -12 -138 -15 -318 -10 -560 -80 -1050 -217 -1528
-46 -159 -162 -502 -170 -502 -4 0 -14 44 -24 98 -177 1008 -279 1510 -353
1747 -55 176 -168 337 -275 391 -76 39 -176 58 -227 44 -134 -36 -171 -188
-107 -442 21 -84 20 -90 -10 -41 -7 10 -15 15 -19 11 -11 -11 10 -133 62 -363
173 -771 303 -1607 303 -1958 0 -105 16 -148 69 -183 32 -21 40 -35 70 -129
35 -113 72 -173 131 -213 32 -22 43 -24 115 -19 158 10 326 117 561 359 127
131 155 167 241 308 96 160 110 188 244 501 170 398 210 522 278 855 55 267
74 452 75 714 1 234 1 235 -31 352 -33 122 -68 201 -101 231 -27 25 -78 38
-107 27 -18 -7 -38 -3 -80 15 -59 27 -171 42 -227 31 l-35 -6 -6 -308 c-6
-323 -14 -442 -48 -712 -60 -487 -190 -936 -387 -1340 -68 -138 -76 -151 -80
-122 -2 23 13 70 51 160 271 632 407 1330 407 2087 0 199 -2 236 -16 249 -19
19 -58 21 -72 4z"/>
<path d="M1505 4836 c-112 -36 -227 -123 -265 -201 -26 -53 -19 -86 30 -141
16 -19 30 -41 30 -49 0 -23 49 -73 84 -85 109 -36 261 -29 352 15 140 69 220
231 180 367 -22 77 -62 108 -109 83 -21 -11 -33 -10 -78 6 -63 21 -165 24
-224 5z"/>
<path d="M5085 4840 c-33 -4 -78 -15 -100 -24 -152 -64 -176 -255 -50 -395
l38 -42 -24 -27 c-12 -15 -36 -39 -53 -54 l-29 -27 55 -258 55 -258 -68 -6
c-114 -11 -170 -73 -170 -189 -1 -95 30 -136 152 -200 l74 -39 -55 -7 -55 -7
84 -28 c46 -16 92 -35 101 -44 9 -8 22 -15 28 -15 7 0 12 -3 12 -7 0 -4 34
-206 75 -449 92 -541 125 -779 125 -894 0 -184 31 -290 84 -290 17 0 27 -11
43 -49 54 -129 210 -109 311 39 l45 65 -6 275 c-6 285 -36 797 -62 1051 -8 80
-15 160 -15 178 0 30 2 32 28 27 15 -3 104 -8 197 -12 l170 -6 52 -87 c29 -47
88 -160 132 -251 82 -172 386 -875 500 -1160 62 -155 68 -165 91 -162 39 4 48
4 176 -9 115 -11 124 -11 155 7 54 31 69 73 69 191 0 208 -50 370 -229 744
-90 190 -209 406 -316 576 -47 75 -84 138 -81 140 2 2 57 -1 122 -6 215 -20
518 -41 580 -41 113 0 172 69 195 228 27 189 -2 243 -206 397 -60 46 -95 80
-106 104 -23 50 -33 58 -305 239 -537 357 -866 534 -1244 667 -91 32 -174 64
-185 71 -44 28 -295 56 -390 44z m521 -661 c284 -82 628 -249 969 -471 66 -42
115 -78 109 -78 -6 0 -117 13 -247 29 l-236 30 -63 49 c-75 59 -168 107 -224
116 -78 13 -163 -25 -185 -83 -8 -20 -14 -23 -45 -18 -20 4 -38 8 -41 11 -2 2
-17 62 -33 133 -15 70 -33 147 -39 169 -12 44 -35 59 -65 42 -18 -10 -20 -7
-35 60 -11 53 -11 53 135 11z"/>
<path d="M10501 4794 c-113 -30 -274 -137 -348 -230 -77 -98 -103 -191 -67
-242 43 -61 160 -102 311 -110 118 -5 215 18 276 67 20 15 58 34 84 41 68 17
181 78 225 123 30 29 38 45 38 72 0 111 -120 233 -277 280 -60 19 -172 18
-242 -1z m-316 -341 c0 -87 25 -125 104 -162 50 -23 68 -26 173 -26 107 0 115
-1 90 -14 -15 -8 -60 -16 -100 -19 -161 -10 -342 70 -342 152 0 23 33 90 58
119 8 9 16 17 16 17 1 0 1 -30 1 -67z"/>
<path d="M900 4264 c-6 -14 -10 -35 -10 -46 0 -12 -17 -35 -37 -53 l-38 -33 0
-225 c0 -213 1 -227 21 -254 37 -50 92 -60 364 -70 l245 -8 12 -105 c39 -356
50 -896 20 -1049 -30 -157 -113 -276 -211 -302 -62 -17 -157 -6 -222 26 -44
22 -66 42 -108 99 -209 283 -285 546 -287 985 0 119 -4 186 -14 219 -31 103
-127 182 -221 182 -197 0 -313 -172 -314 -465 0 -127 17 -267 39 -325 10 -25
28 -96 40 -158 58 -302 182 -569 370 -794 184 -219 391 -350 596 -376 192 -23
392 -11 510 32 115 42 255 150 326 252 67 98 132 261 164 411 23 112 38 336
31 468 -10 190 -107 1390 -122 1503 -8 62 -28 48 -32 -21 -2 -31 8 -251 22
-489 44 -744 48 -846 48 -1113 1 -273 -9 -384 -43 -500 -39 -131 -93 -212
-193 -290 -32 -25 -60 -45 -63 -45 -2 0 16 21 41 46 95 100 167 268 187 440
25 211 -6 1300 -57 2002 -6 84 -17 100 -44 67 -10 -12 -15 -13 -21 -4 -5 9
-32 8 -112 -4 -154 -24 -379 -39 -487 -32 -109 8 -269 30 -320 45 -53 15 -70
12 -80 -16z m134 -493 c68 -25 151 -40 286 -50 91 -7 73 -8 -136 -10 -192 -1
-244 2 -253 13 -6 7 -14 42 -18 76 l-6 64 36 -36 c20 -20 60 -45 91 -57z m469
-1839 c-33 -32 -86 -71 -117 -86 -51 -26 -64 -28 -129 -24 -71 5 -140 31 -192
72 -19 15 -19 16 8 6 62 -22 155 -30 229 -20 70 10 186 56 233 94 43 34 27 12
-32 -42z"/>
<path d="M10555 4161 c-100 -25 -261 -124 -308 -190 -105 -146 -117 -222 -117
-774 0 -404 9 -602 41 -927 46 -468 73 -563 182 -636 29 -19 71 -50 95 -69
128 -103 382 -77 382 39 0 7 18 26 41 41 22 16 45 37 50 47 9 17 10 17 29 -2
23 -23 30 -24 53 -7 17 11 16 24 -7 217 -63 516 -86 883 -93 1478 -4 357 -9
492 -17 489 -20 -7 -26 -164 -28 -707 -2 -476 -4 -527 -15 -460 -27 156 -35
340 -37 835 0 281 -4 515 -9 522 -4 6 -21 14 -37 18 -18 4 -37 18 -47 36 -29
49 -86 67 -158 50z m-164 -438 c-33 -141 -41 -283 -41 -710 0 -262 -3 -403
-10 -403 -5 0 -10 4 -10 8 0 5 -9 92 -21 193 -18 167 -19 205 -9 414 13 287
43 484 87 568 24 48 26 23 4 -70z"/>
<path d="M5754 3053 c28 -254 47 -481 61 -728 9 -159 18 -319 22 -355 l6 -65
18 70 c23 87 24 213 4 435 -26 285 -62 591 -81 678 -2 12 -12 22 -21 22 -13 0
-15 -8 -9 -57z"/>
</g>
</svg>
